<svg xmlns="http://www.w3.org/2000/svg" viewBox="0 0 50 50" style="enable-background:new 0 0 50 50" xml:space="preserve"><path d="M16.725 39.117c0 .476-1.085.555-1.085 0 0-.476 1.085-.529 1.085 0zm-3.123-.45c-.158.423.874.793 1.059.291.132-.502-.926-.792-1.059-.29zm4.446-.184c-.768.211-.53.951.106.766.714-.185.582-.82-.106-.766zM24.69-.097C8.734-.096.16 11.954 0 24.268-.13 34.387 5.426 44.666 17.095 48.55c2.276.423 1.72-1.374 1.72-7.398-10.055 2.14-7.33-4.915-11.352-6.686-3.096-2.14 2.09-2.378 4.049 1.03 2.196 3.885 5.9 2.775 7.356 2.115.238-1.612.9-2.722 1.614-3.383-5.636-.634-11.325-1.426-11.325-11.124 0-2.775.767-4.149 2.381-5.919-.264-.66-1.111-3.356.265-6.844 2.117-.66 6.96 2.722 6.96 2.722a23.893 23.893 0 0 1 12.648 0s4.842-3.382 6.959-2.722c1.376 3.488.53 6.183.264 6.844 1.615 1.77 2.594 3.17 2.594 5.919 0 9.724-5.928 10.49-11.564 11.124 4.049 3.462-.714 15.089 3.44 14.296 11.564-3.805 17.094-14.084 16.909-24.231-.265-12.314-8.944-24.39-25.323-24.39zM9.818 34.626c-.317.264.318.925.609.634.344-.264-.37-.925-.609-.634zm-1.11-.82c-.16.291.555.661.66.318.16-.238-.37-.608-.66-.317zm3.28 3.594c-.37.317.477 1.137.794.74.344-.343-.476-1.136-.794-.74zm-1.164-1.48c-.397.265.238 1.058.556.82.37-.317-.186-1.11-.556-.82z"/></svg>