<svg version="1.1" id="Слой_1" xmlns="http://www.w3.org/2000/svg" x="0" y="0" viewBox="0 0 122.9 122.9" style="enable-background:new 0 0 122.9 122.9" xml:space="preserve"><style>.st0{fill:#e70004}</style><path class="st0" d="M61.4 0C27.5 0 0 27.5 0 61.4c0 34 27.5 61.5 61.4 61.4 33.9 0 61.4-27.4 61.4-61.4C122.8 27.5 95.4 0 61.4 0zm35.5 96.9c-19.6 19.6-51.3 19.6-70.9 0S6.4 45.5 26 26C45.6 6.4 77.3 6.4 96.9 26c19.6 19.6 19.6 51.3 0 70.9z"/><path d="M96.9 96.9c-19.6 19.6-51.3 19.6-70.9 0S6.4 45.5 26 26C45.6 6.4 77.3 6.4 96.9 26c19.6 19.6 19.6 51.3 0 70.9z" style="fill:none"/><path class="st0" d="M71.8 81.1c-1-.9-5.2-4.9-10.2-9.6-5.3 5.5-9.6 9.9-9.8 10.1-6.4 3.8-13.7-3.4-10-9.8.9-1 4.8-5.1 9.4-10-5-4.8-9.2-8.9-9.8-9.7-3.9-5.7 1.9-13.1 8.4-10.6.8.3 5.6 4.7 11.2 10 4.9-5.1 9-9.3 9.9-9.9 5.7-3.9 13.1 1.9 10.6 8.4-.3.8-4.8 5.7-10.1 11.3 5.6 5.4 10.1 9.7 10.2 9.9 3.7 6.2-3.4 13.5-9.8 9.9z"/></svg>