<?xml version="1.0" encoding="utf-8"?>
<!-- Generator: Adobe Illustrator 26.1.0, SVG Export Plug-In . SVG Version: 6.00 Build 0)  -->
<svg version="1.1" id="Слой_1" xmlns="http://www.w3.org/2000/svg" xmlns:xlink="http://www.w3.org/1999/xlink" x="0px" y="0px"
	 viewBox="0 0 108.2 78.2" style="enable-background:new 0 0 108.2 78.2;" xml:space="preserve">
<style type="text/css">
	.st0{fill:#1C1D25;}
</style>
<g transform="matrix(.26458 0 0 .26458 1.2965 1.3229)">
	<path class="st0" d="M239.1,65.1v158.4C344.9,223.3,355,65.1,239.1,65.1z"/>
	<path class="st0" d="M407.2-7.9H-8.6v302.4h415.8V-7.9z M176.1,277.5V169.7c-30.6,35.9-61.5,71.8-92.1,107.7H10.7
		C48.5,233.2,86.2,188.6,124,144C86.2,99.8,48.5,55.2,10.7,10.6h73.2c30.6,36.3,61.5,72.2,92.1,108.1V10.6h77.4
		c179,0,179.4,267.8,0,266.8L176.1,277.5z"/>
</g>
</svg>
