<?xml version="1.0" encoding="utf-8"?>
<!-- Generator: Adobe Illustrator 24.1.2, SVG Export Plug-In . SVG Version: 6.00 Build 0)  -->
<svg version="1.1" id="Слой_1" xmlns="http://www.w3.org/2000/svg" xmlns:xlink="http://www.w3.org/1999/xlink" x="0px" y="0px"
	 viewBox="0 0 80 110" style="enable-background:new 0 0 80 110;" xml:space="preserve">
<style type="text/css">
	.st0{fill:#1C1D25;}
</style>
<g transform="matrix(.26458 0 0 .26458 1.2965 1.3229)">
	<path class="st0" d="M147.8,80c-45,0-79.7,30.6-79.7,76v7.2h158.4V156C226.4,111,192.4,80.4,147.8,80z"/>
	<path class="st0" d="M-4.9-5v416.1h302.4V-5H-4.9z M280.5,226.3H172.7c35.9,30.6,71.8,61.6,107.7,92.2v73.3
		c-44.2-37.8-88.8-75.6-133.4-113.4c-44.2,37.8-88.8,75.6-133.4,113.4v-73.3c36.3-30.6,72.2-61.6,108.1-92.2H13.6v-77.5
		c0-72.9,55.6-134.9,133.8-134.9c77.9,0,133.4,60.8,133,134.9L280.5,226.3z"/>
</g>
</svg>
