<?xml version="1.0" encoding="utf-8"?>
<!-- Generator: Adobe Illustrator 26.1.0, SVG Export Plug-In . SVG Version: 6.00 Build 0)  -->
<svg version="1.1" id="Слой_1" xmlns="http://www.w3.org/2000/svg" xmlns:xlink="http://www.w3.org/1999/xlink" x="0px" y="0px"
	 viewBox="0 0 311.2 116.5" style="enable-background:new 0 0 311.2 116.5;" xml:space="preserve">
<style type="text/css">
	.st0{fill:#F9C847;}
</style>
<g>
	<g>
		<path class="st0" d="M294.5,13.8V0.2c-16.1,12.6-56,43.8-73,56.8l22.2,16.6c12.4,0.1,24.9,0.2,37.4,0.3l13.5-14.7
			c0,10,0,22.6-0.1,57.1L311.2,97V28.2L294.5,13.8z M294.5,59.2L294.5,59.2C294.4,59.2,294.4,59.2,294.5,59.2
			c-15.5-0.2-31.7-0.3-47.1-0.4c10.6-8.1,33.1-26.8,47.1-36C294.5,42.9,294.5,49.9,294.5,59.2C294.4,59.2,294.4,59.2,294.5,59.2z"/>
		<path class="st0" d="M294.5,59.2L294.5,59.2C294.4,59.2,294.4,59.2,294.5,59.2C294.4,59.2,294.4,59.2,294.5,59.2z"/>
	</g>
	<path class="st0" d="M294.5,59.2L294.5,59.2C294.4,59.2,294.4,59.2,294.5,59.2C294.4,59.2,294.4,59.2,294.5,59.2z"/>
</g>
<path class="st0" d="M168.9,11.3h-3.8c0,0,0,0.2,0,0.8c0-6.6,0-8.9,0-8.9c-0.6,0-1.9,0-3.8,0c-46,0-50.6,102.4,3.8,102.5v8.1
	C219.5,113.8,214.9,11.3,168.9,11.3z M165.2,97v-8.1c-29.6,0-29.5-70,0-70.1c0,2.2,0,4.9,0,8.1C194.6,26.9,194.7,96.9,165.2,97z"/>
<g>
	<g>
		<path class="st0" d="M73,59L73,59C73,59,73,59,73,59C73,59,73,59,73,59z"/>
	</g>
	<path class="st0" d="M89.7,28v68.7l-16.8,19.3C73,81.6,73,69,73,59l0,0c0,0,0,0,0,0c0-9.2,0-16.3,0-36.4
		c-13.9,9.2-36.5,27.9-47.1,36c15.4,0.1,31.6,0.2,47,0.4c0,0,0,0,0,0L59.6,73.8c-12.5-0.2-25-0.2-37.4-0.3L0,56.8
		C17,43.8,57,12.6,73,0v13.6L89.7,28z"/>
	<path class="st0" d="M73,59L73,59C73,59,73,59,73,59C73,59,73,59,73,59z"/>
</g>
</svg>
