<svg version="1.1" id="Слой_1" xmlns="http://www.w3.org/2000/svg" x="0" y="0" viewBox="0 0 311.2 116.5" style="enable-background:new 0 0 311.2 116.5" xml:space="preserve"><style>.st0{fill:#f9c847}</style><path class="st0" d="M294.5 13.8V.2c-16.1 12.6-56 43.8-73 56.8l22.2 16.6 37.4.3 13.5-14.7c0 10 0 22.6-.1 57.1L311.2 97V28.2l-16.7-14.4zm0 45.4c-.1 0-.1 0 0 0-15.5-.2-31.7-.3-47.1-.4 10.6-8.1 33.1-26.8 47.1-36v36.4c-.1 0-.1 0 0 0zM294.5 59.2c-.1 0-.1 0 0 0-.1 0-.1 0 0 0zM294.5 59.2c-.1 0-.1 0 0 0-.1 0-.1 0 0 0zM164 10.8h-3.8v.8-8.9h-3.8c-46 0-50.6 102.4 3.8 102.5v8.1c54.4 0 49.8-102.5 3.8-102.5zm-3.7 85.7v-8.1c-29.6 0-29.5-70 0-70.1v8.1c29.4 0 29.5 70 0 70.1zM73 59zM89.7 28v68.7L72.9 116c.1-34.4.1-47 .1-57V22.6c-13.9 9.2-36.5 27.9-47.1 36 15.4.1 31.6.2 47 .4L59.6 73.8c-12.5-.2-25-.2-37.4-.3L0 56.8C17 43.8 57 12.6 73 0v13.6L89.7 28zM73 59z"/></svg>