<?xml version="1.0" encoding="UTF-8"?>
<svg enable-background="new 0 0 50 50" version="1.1" viewBox="0 0 50 50" xml:space="preserve" xmlns="http://www.w3.org/2000/svg">

	<path d="m25 34.8c0.1 0 0.1 0 0.1-0.2-0.1-0.4 0-0.9 0.1-1.2 0.2-0.3 0.5-0.7 0.8-0.8 0.1-0.1 0.2-0.1 0.2-0.1s-0.1-0.1-0.1-0.3c-0.2-0.5-0.2-1.2 0.2-1.6 0.1-0.1 0.1-0.1-0.2-0.4-0.5-0.5-0.5-1.2-0.1-1.7 0.1-0.1 0.1-0.1 0-0.2-0.2-0.1-0.3-0.4-0.3-0.6 0-0.1 0-0.1-0.7-0.1s-0.7 0-0.7 0.1c0 0.4-0.3 0.7-0.6 0.8-0.2 0-0.2 0-0.1 0.3 0 0.4-0.1 0.7-0.3 0.9-0.3 0.3-0.6 0.4-1 0.4h-0.3v0.2c0 0.4-0.1 0.6-0.4 1-0.4 0.4-1 0.5-1.5 0.3-0.2-0.1-0.3-0.1-0.3 0-0.1 0.3-0.3 0.6-0.5 0.8-0.7 0.6-1.7 0.6-2.3 0.1l-0.2-0.2-0.3 0.3c-0.5 0.4-0.9 0.6-1.5 0.6-0.5 0-0.6 0-0.9-0.2s-0.7-0.5-0.9-0.8l-0.1-0.1-0.4 0.2c-0.3 0.1-0.4 0.2-0.9 0.2-0.6 0-1-0.1-1.4-0.5l-0.2-0.2s0 0.1-0.1 0.1c-0.1 0.1 0 0.1 0.2 0.4 0.2 0.2 0.3 0.4 0.4 0.6 0.1 0.5 0.1 0.6-0.1 1.2 0 0.1 0 0.1 0.2 0.2 0.4 0.2 0.7 0.5 0.8 0.8 0.1 0.2 0.1 0.4 0.1 0.7v0.4h0.5c0.4 0 0.5 0 0.9 0.2 0.2 0.1 0.5 0.3 0.6 0.4 0.2 0.3 0.4 0.7 0.4 0.9s0.1 0.2 0.4 0.1c0.2-0.1 0.4-0.1 0.7-0.1 0.6 0 1 0.2 1.4 0.7l0.3 0.3 0.4-0.3c0.2-0.2 0.5-0.4 0.7-0.5 0.7-0.3 1.5-0.3 2.2 0l0.4 0.2s0.1-0.1 0.1-0.3c0.3-0.7 1.1-1.1 1.9-1.2h0.4v-0.3c0-0.4 0.3-0.8 0.6-1.1 0.6-0.1 1.2-0.4 1.4-0.4z"/>
	<path d="m11.5 27.7 0.1 0.5h0.4c0.3 0 0.5 0 0.8 0.1 0.4 0.1 0.9 0.6 1.1 1 0.1 0.1 0.2 0.3 0.2 0.3s0.2-0.1 0.4-0.1c0.3-0.1 0.4-0.1 0.7-0.1 0.4 0 1 0.3 1.3 0.6l0.2 0.2s0.2-0.1 0.3-0.3c0.6-0.5 1.6-0.6 2.2-0.1 0.1 0.1 0.2 0.1 0.2 0.1 0.1-0.2 0.4-0.6 0.7-0.7s0.4-0.2 0.7-0.2c0.4 0 0.4 0 0.4-0.1 0-0.6 0.8-1.2 1.4-1.2h0.2l0.1-0.3c0.1-0.2 0.2-0.3 0.3-0.4l0.2-0.1-0.4-0.3c-0.1-0.2-0.3-0.4-0.4-0.5-0.1-0.2-0.1-0.2-0.2-0.2-0.4 0.1-0.6 0.1-0.9-0.1l-0.2-0.1-0.3 0.2c-0.6 0.4-1.4 0.2-1.8-0.4l-0.2-0.3-0.3 0.1c-0.3 0.2-0.9 0.2-1.2 0-0.5-0.2-0.9-0.7-0.9-1.2v-0.2h-0.5c-0.5 0-0.5 0-0.9-0.2-0.7-0.3-1-1-1-1.8v-0.4h-0.3c-0.6-0.1-1.2-0.6-1.5-1.2-0.2-0.5-0.2-1.1 0-1.5 0.1-0.2 0.2-0.3 0.2-0.3s-0.1-0.1-0.3-0.2c-0.3-0.2-0.7-0.7-0.8-1.1-0.1-0.3-0.1-1 0-1.3v-0.2c-0.2-0.1-0.2 0-0.2 0.1 0 0.3-0.1 0.6-0.4 0.9s-0.6 0.5-0.9 0.5h-0.3v0.4c0.1 0.7-0.3 1.3-0.9 1.6l-0.3 0.2 0.1 0.2c0.2 0.2 0.4 0.6 0.4 1 0.1 0.5-0.2 1.2-0.6 1.6l-0.2 0.2 0.3 0.3c0.4 0.4 0.6 0.8 0.6 1.4 0 0.3 0 0.5-0.1 0.7-0.1 0.1-0.1 0.3-0.1 0.3 0 0.1 0.1 0.1 0.4 0.2 1.3 0.4 2 1.3 2.2 2.4z"/>
	<path d="m15.6 17.7-0.1 0.2 0.2 0.1c0.7 0.5 1 1.3 0.8 2l-0.1 0.3 0.2 0.1c0.4 0.1 0.6 0.3 0.9 0.6s0.4 0.7 0.4 1.2v0.3h0.3c0.2 0 0.4 0.1 0.6 0.1 0.3 0.1 0.6 0.5 0.7 0.8l0.1 0.2 0.3-0.1c0.3-0.1 0.5-0.1 0.8-0.1 0.3 0.1 0.7 0.4 0.8 0.7l0.1 0.2h0.8l0.1-0.3c0.1-0.2 0.2-0.5 0.3-0.6 0.2-0.2 0.2-0.3 0.1-0.4-0.2-0.4-0.3-0.6-0.2-0.9 0-0.1 0-0.1-0.1-0.2-0.3-0.1-0.7-0.5-0.8-0.9-0.1-0.3 0-0.7 0.1-1 0.1-0.1 0.1-0.2 0.1-0.3s-0.1-0.1-0.2-0.2l-0.4-0.4c-0.4-0.6-0.2-1.4 0.4-1.8l0.3-0.2-0.2-0.2c-0.5-0.6-0.6-1.5-0.1-2.2 0.2-0.3 0.7-0.6 0.9-0.7 0.1 0 0.2-0.1 0.1-0.1-0.5-1.2 0-2.4 1.2-2.8 0.2-0.1 0.4-0.1 0.5-0.1 0.2 0 0.2 0 0.2-0.4 0.1-0.7 0.6-1.4 1.1-1.7 0.1 0 0.2-0.1 0.2-0.1s-0.2-0.4-0.3-0.4c0 0-0.1 0-0.2 0.1-0.5 0.3-1.2 0.1-1.7-0.3l-0.3-0.3s-0.1 0.1-0.3 0.2c-0.6 0.4-1.3 0.4-2 0l-0.2-0.1-0.2 0.3c-0.4 0.9-1.5 1.3-2.4 1-0.1 0-0.1 0-0.2 0.3-0.1 0.4-0.3 0.9-0.7 1.2-0.3 0.3-0.8 0.5-1.1 0.5-0.2 0-0.3 0.1-0.2 0.4 0.2 0.7 0.1 1.6-0.3 2.2-0.2 0.3-0.6 0.7-0.9 0.8-0.2 0.1-0.2 0.1 0 0.4 1 0.9 1 1.9 0.6 2.6z"/>
	<path d="m25.1 15.2c-0.2 0-0.2 0.1-0.1 0.2v0.6c0 0.4 0 0.5-0.1 0.7-0.2 0.4-0.4 0.6-0.7 0.8l-0.3 0.2 0.1 0.3c0.1 0.1 0.2 0.4 0.2 0.5 0.1 0.3-0.1 0.8-0.3 1.1l-0.2 0.2 0.2 0.2c0.3 0.2 0.5 0.6 0.5 1 0 0.3-0.1 0.7-0.3 0.8-0.1 0.1-0.1 0.2 0 0.3l0.2 0.2c0.1 0.2 0.1 0.2 0.3 0.2h0.7c0.5 0 0.5 0 0.6-0.1 0.1-0.2 0.4-0.4 0.6-0.5 0.1 0 0.1-0.1 0.1-0.3-0.1-0.3 0.1-0.7 0.3-1 0.3-0.3 0.6-0.5 1-0.5h0.3l0.1-0.4c0.1-0.4 0.3-0.8 0.6-1s0.9-0.3 1.3-0.1c0.1 0.1 0.3 0.1 0.3 0.1s0.1-0.2 0.2-0.3c0.4-0.9 1.5-1.3 2.3-0.9 0.2 0.1 0.4 0.2 0.5 0.3l0.1 0.1 0.3-0.3c0.1-0.2 0.4-0.4 0.6-0.4 0.3-0.1 0.4-0.2 0.9-0.2s0.6 0 0.8 0.1c0.4 0.2 0.6 0.4 0.8 0.7 0.1 0.1 0.2 0.3 0.2 0.3s0.2 0 0.4-0.1c0.7-0.3 1.6-0.2 2.2 0.3l0.3 0.2 0.1-0.1c0.1-0.1 0.1-0.1 0-0.2-0.6-0.4-0.8-1.1-0.6-1.8 0.1-0.3 0.1-0.3-0.1-0.4-0.3-0.1-0.6-0.4-0.8-0.7s-0.3-0.8-0.3-1.1v-0.2h-0.3c-0.6 0.1-1.3-0.2-1.7-0.7-0.2-0.2-0.4-0.7-0.4-0.9 0-0.1 0-0.1-0.3 0-0.8 0.3-1.9-0.1-2.4-0.8l-0.1-0.1-0.3 0.3c-0.8 0.8-2.2 1-3.2 0.4l-0.2-0.1-0.6-0.1c-0.3 0.8-1.3 1.3-2.1 1.2h-0.2v0.3c-0.1 0.8-0.8 1.5-1.5 1.7z"/>
	<path d="m34.1 33.3c0-0.4 0-0.5 0.2-0.8l0.2-0.4-0.3-0.3c-0.2-0.2-0.4-0.4-0.5-0.6-0.1-0.3-0.2-0.4-0.2-0.8v-0.6c0-0.2 0-0.2-0.3-0.2-0.8-0.2-1.4-1.1-1.3-1.8v-0.2h-0.3c-0.2 0-0.4 0-0.6-0.1-0.3-0.1-0.6-0.5-0.7-0.8-0.1-0.2-0.1-0.2-0.2-0.2-0.6 0.2-0.9 0.2-1.3 0-0.2-0.1-0.5-0.5-0.6-0.7 0-0.1-0.1-0.1-0.5-0.1h-0.4l-0.1 0.2c0 0.1-0.2 0.4-0.3 0.6l-0.3 0.4 0.4 0.1c0.2 0.2 0.3 0.5 0.2 0.8v0.2c0.5 0.2 0.6 0.3 0.8 0.6 0.2 0.2 0.2 0.3 0.2 0.7s0 0.5-0.2 0.7c-0.1 0.1-0.2 0.3-0.1 0.3 0 0 0.1 0.1 0.2 0.1 0.3 0.2 0.5 0.5 0.6 0.9s0 0.9-0.4 1.2l-0.3 0.3c-0.1 0 0 0.1 0.1 0.3 0.8 0.9 0.4 2.3-0.7 2.7-0.2 0.1-0.3 0.2-0.3 0.2s0.1 0.3 0.1 0.5c0.1 0.3 0.1 0.4 0 0.7-0.1 0.5-0.3 0.8-0.6 1.1s-0.7 0.5-1.2 0.6l-0.4 0.1v0.4c0 0.2-0.1 0.5-0.2 0.7-0.2 0.4-0.6 0.8-0.9 1-0.1 0-0.1 0.1-0.1 0.1 0.1 0.3 0.2 0.4 0.3 0.4 0 0 0.2-0.1 0.3-0.1 0.5-0.2 1.1-0.1 1.5 0.4 0.1 0.2 0.3 0.3 0.3 0.3s0.1-0.1 0.3-0.2c0.3-0.2 0.8-0.4 1.2-0.3 0.3 0 0.8 0.3 0.9 0.4s0.1 0.1 0.2-0.2c0.3-0.8 1.3-1.3 2.1-1.1 0.1 0 0.3 0.1 0.3 0.1 0.1 0 0.1 0 0.1-0.3 0.1-0.8 0.9-1.6 1.8-1.8 0.2 0 0.2-0.1 0.2-0.2s-0.1-0.3-0.1-0.5c-0.2-0.9 0.2-2.1 1-2.7l0.3-0.2-0.2-0.3c-0.1-0.7-0.2-1-0.2-1.6z"/>
	<path d="m25 0c-13.8 0-25 11.2-25 25s11.2 25 25 25 25-11.2 25-25-11.2-25-25-25zm19.4 29.9c-0.2 0.4-0.6 0.8-1 0.9-0.2 0.1-0.3 0.1-0.3 0.2s0 0.1 0.1 0.2c0.3 0.4 0.4 1.1 0.1 1.6-0.3 0.6-1 1.1-1.6 1h-0.2v0.3c0 0.5-0.3 1.1-0.8 1.3-0.2 0.1-0.8 0.2-1.1 0.1-0.1 0-0.2 0-0.2 0.1 0 0.3-0.5 0.9-0.8 1h-0.2v0.5c0 0.8-0.2 1.3-0.7 1.9-0.5 0.5-1.2 0.8-1.9 0.8-0.2 0-0.3 0-0.2 0.1 0.1 0 0.1 0.2 0.1 0.6 0 0.5 0 0.6-0.2 0.9-0.4 0.9-1.5 1.4-2.4 1.2-0.2-0.1-0.4-0.1-0.5-0.1s-0.1 0-0.1 0.2c-0.1 0.3-0.3 0.7-0.6 1-0.7 0.7-1.7 0.7-2.5 0.1-0.1-0.1-0.2-0.1-0.2-0.1s-0.1 0.1-0.2 0.3c-0.4 0.6-1.1 1-1.8 0.9-0.5-0.1-1-0.5-1.2-0.9l-0.1-0.2-0.3 0.2c-0.4 0.2-0.9 0.3-1.3 0.1l-0.4-0.2c-0.2-0.2-0.4-0.5-0.5-0.7l-0.1-0.2-0.3 0.1c-0.5 0.1-1.1-0.1-1.4-0.6-0.1-0.2-0.1-0.3-0.1-0.4s-0.2 0.1-0.4 0.3c-0.4 0.4-0.8 0.7-1.4 0.8-1 0.2-2.2-0.3-2.7-1.2-0.1-0.2-0.2-0.3-0.2-0.3s-0.1 0.1-0.3 0.2c-0.4 0.3-0.7 0.4-1.3 0.4-0.5 0-0.6 0-0.9-0.2-0.4-0.2-0.9-0.7-1-1.1-0.1-0.1-0.1-0.4-0.1-0.6s-0.1-0.3-0.1-0.3c-0.1 0-0.3 0.1-0.6 0.1-0.4 0-0.5 0-0.8-0.1-0.7-0.3-1.2-1-1.2-1.7v-0.5-0.2h-0.5c-0.5 0-0.8-0.2-1.2-0.6-0.5-0.5-0.5-1.3-0.2-1.9l0.4-0.4s-0.1-0.1-0.2-0.1c-0.8-0.4-1-1.6-0.4-2.4l0.2-0.2-0.1-0.1c-0.2-0.1-0.4-0.6-0.4-0.9 0-0.1 0-0.3 0.1-0.4 0.1-0.2 0.1-0.2 0-0.3-0.4-0.1-0.8-0.4-1.1-0.7-0.8-0.8-1-2.1-0.4-3.1 0.1-0.2 0.1-0.3 0.1-0.3l-0.4-0.2c-0.4-0.2-0.7-0.6-1-1-0.1-0.3-0.2-0.4-0.2-0.9s0-0.6 0.2-0.9c0.1-0.2 0.3-0.5 0.5-0.6l0.3-0.3-0.2-0.2c-0.4-0.4-0.5-0.8-0.5-1.3 0-0.4 0-0.5 0.1-0.7 0.2-0.4 0.6-0.8 1-1l0.3-0.2-0.2-0.4c-0.2-0.4-0.2-0.4-0.2-0.8 0.1-0.9 0.7-1.6 1.6-1.6h0.4v-0.3c0-0.2 0.1-0.5 0.1-0.6 0.2-0.3 0.6-0.7 0.9-0.8s0.8-0.1 1 0c0.1 0 0.1 0 0.2-0.2 0-0.1 0.1-0.3 0.2-0.4 0.1-0.2 0.6-0.4 0.7-0.4s0.1-0.1 0.1-0.4c-0.1-1.5 1.1-2.8 2.6-2.8h0.2v-0.2-0.6c0-1.3 1.4-2.3 2.6-1.9 0.2 0.1 0.4 0.1 0.4 0.1s0.1-0.1 0.2-0.4c0.2-0.5 0.7-1 1.1-1.2 0.6-0.2 1.3-0.1 1.8 0.3 0.2 0.2 0.2 0.2 0.3 0.1 0.4-0.7 0.7-0.9 1.2-1.1 0.6-0.2 1.3 0 1.7 0.5 0.1 0.1 0.2 0.3 0.2 0.3v0.1l0.3-0.2c0.8-0.4 1.9 0 2.1 0.9 0.1 0.2 0.1 0.2 0.3 0.2 0.3-0.1 0.7 0 0.9 0.1 0.3 0.2 0.5 0.4 0.7 0.9 0 0.1 0.1 0.1 0.2-0.1 0.2-0.2 0.6-0.6 0.9-0.7 0.4-0.3 1-0.4 1.4-0.4 0.8 0.1 1.5 0.5 1.9 1.1 0.1 0.2 0.2 0.4 0.3 0.4 0 0 0.2 0 0.3-0.2 0.3-0.3 0.6-0.4 1-0.4 0.6-0.1 1.4 0.1 1.8 0.6 0.3 0.3 0.5 0.6 0.6 1.1l0.1 0.3h0.2c0.8-0.2 1.8 0.2 2.2 1.1 0.1 0.2 0.1 0.4 0.1 0.8v0.6h0.4c0.3 0 0.4 0 0.7 0.2 0.8 0.4 1.2 1.4 0.8 2.3-0.2 0.3-0.2 0.3-0.1 0.4 0.2 0.1 0.6 0.5 0.7 0.7s0.1 0.3 0.1 0.7c0 0.5-0.1 0.8-0.4 1.1l-0.2 0.2 0.1 0.1c0.3 0.3 0.4 0.6 0.4 0.9 0 0.2 0 0.4-0.1 0.4 0 0.1 0 0.1 0.4 0.3 0.6 0.3 1 0.7 1.3 1.2 0.2 0.4 0.2 0.5 0.2 1.1s0 0.7-0.2 1.1c-0.2 0.5-0.2 0.5-0.1 0.5 0.2 0 0.7 0.3 0.9 0.6 0.9 0.9 0.9 2.3-0.1 3.1l-0.3 0.3 0.3 0.3c0.4 0.4 0.5 0.8 0.5 1.4-0.1 0.2-0.1 0.4-0.2 0.6z"/>
	<path d="m40.6 25.7c0-0.4 0-0.5 0.1-0.7s0.1-0.3 0.1-0.3-0.1 0-0.3-0.1c-1.1-0.2-1.9-1.2-2-2.3v-0.4h-0.5c-0.8 0-1.5-0.4-1.9-1-0.1-0.2-0.2-0.3-0.3-0.3-0.1 0.1-0.7 0.2-0.9 0.2-0.4 0-0.9-0.2-1.3-0.5-0.2-0.1-0.3-0.3-0.3-0.3l-0.2 0.2c-0.6 0.6-1.5 0.6-2.2 0.2l-0.2-0.1-0.1 0.2c-0.3 0.5-1 0.8-1.5 0.7l-0.2-0.1-0.1 0.3c-0.1 0.7-0.6 1-1.3 1-0.3 0-0.4 0-0.4 0.1 0 0-0.1 0.2-0.1 0.3v0.3l0.2 0.3 0.3 0.6c0.1 0.3 0.1 0.3 0.3 0.2 0.3 0 0.5 0 0.7 0.2l0.2 0.2 0.1-0.1c0.3-0.3 0.9-0.4 1.3-0.2 0.2 0.1 0.7 0.5 0.7 0.7 0 0.1 0.1 0.1 0.4 0 0.6-0.3 1.4-0.1 1.7 0.4 0.2 0.3 0.3 0.6 0.3 0.8 0 0.1 0 0.1 0.2 0.1 0.8-0.2 1.6 0.2 2 0.9 0.1 0.2 0.1 0.3 0.1 0.8v0.5h0.2c1.3 0.2 2.1 1.6 1.5 2.8l-0.1 0.3 0.2 0.2c0.8 0.5 1.2 1.5 1 2.3-0.1 0.2-0.1 0.3 0 0.3 0.1 0.1 0.1 0.1 0.2-0.3 0.1-0.6 0.6-1.2 1.2-1.2h0.3v-0.4c0-0.3 0-0.5 0.1-0.7 0.2-0.4 0.5-0.7 0.8-0.9 0.1-0.1 0.3-0.1 0.3-0.1s-0.1-0.1-0.2-0.3c-0.5-0.7-0.4-1.9 0.2-2.4l0.2-0.2-0.3-0.3c-0.3-0.9-0.5-1.3-0.5-1.9z"/>

</svg>
