<?xml version="1.0" encoding="UTF-8"?>
<svg enable-background="new 0 0 50 50" version="1.1" viewBox="0 0 50 50" xml:space="preserve" xmlns="http://www.w3.org/2000/svg">
<g transform="matrix(.26461 0 0 .26424 .0013972 -.017033)">
	<path d="m63.2 148.1c0 0.8-0.9 1.4-2 1.4-1.3 0.1-2.1-0.5-2.1-1.4 0-0.8 0.9-1.4 2-1.4 1.1-0.1 2.1 0.5 2.1 1.4zm-11.8-1.7c-0.3 0.8 0.5 1.6 1.6 1.9 1 0.4 2.1 0 2.4-0.8 0.2-0.8-0.5-1.6-1.6-2-1.1-0.3-2.2 0.1-2.4 0.9zm16.8-0.7c-1.1 0.3-1.9 1-1.8 1.9 0.1 0.8 1.1 1.3 2.2 1s1.9-1 1.8-1.8c-0.1-0.7-1.1-1.2-2.2-1.1zm25.1-146c-52.9 0-93.3 40.2-93.3 93 0 42.2 26.6 78.4 64.6 91.1 4.9 0.9 6.6-2.1 6.6-4.6 0-2.4-0.1-15.4-0.1-23.4 0 0-26.7 5.7-32.3-11.4 0 0-4.3-11.1-10.6-13.9 0 0-8.7-6 0.6-5.9 0 0 9.5 0.8 14.7 9.8 8.3 14.7 22.3 10.5 27.8 8 0.9-6.1 3.4-10.3 6.1-12.8-21.3-2.4-42.8-5.4-42.8-42.1 0-10.5 2.9-15.7 9-22.4-1-2.5-4.2-12.7 1-25.9 8-2.5 26.3 10.3 26.3 10.3 15.7-4.3 32.2-4.3 47.8 0 0 0 18.3-12.8 26.3-10.3 5.2 13.2 2 23.4 1 25.9 6.1 6.7 9.8 12 9.8 22.4 0 36.8-22.4 39.7-43.7 42.1 3.5 3 6.5 8.7 6.5 17.7 0 12.8-0.1 28.7-0.1 31.8 0 2.5 1.8 5.5 6.6 4.6 38.1-12.6 63.9-48.8 63.9-91.1 0-52.8-42.9-92.9-95.7-92.9zm-56.2 131.4c-0.5 0.4-0.4 1.3 0.3 2 0.6 0.6 1.5 0.9 2 0.4 0.5-0.4 0.4-1.3-0.3-2-0.7-0.6-1.6-0.9-2-0.4zm-4.2-3.1c-0.3 0.5 0.1 1.1 0.9 1.5 0.6 0.4 1.4 0.3 1.6-0.3 0.3-0.5-0.1-1.1-0.9-1.5-0.7-0.2-1.3 0-1.6 0.3zm12.4 13.6c-0.6 0.5-0.4 1.6 0.5 2.4 0.9 0.9 2 1 2.5 0.4 0.5-0.5 0.3-1.6-0.5-2.4-0.9-0.9-2-1-2.5-0.4zm-4.4-5.6c-0.6 0.4-0.6 1.4 0 2.2 0.6 0.9 1.6 1.3 2.1 0.9 0.6-0.5 0.6-1.5 0-2.4-0.5-0.8-1.5-1.2-2.1-0.7z"/>
</g>
</svg>
