<?xml version="1.0" encoding="utf-8"?>
<!-- Generator: Adobe Illustrator 26.1.0, SVG Export Plug-In . SVG Version: 6.00 Build 0)  -->
<svg version="1.1" id="Слой_1" xmlns="http://www.w3.org/2000/svg" xmlns:xlink="http://www.w3.org/1999/xlink" x="0px" y="0px"
	 viewBox="0 0 50 50" style="enable-background:new 0 0 50 50;" xml:space="preserve">
<path d="M25,0C11.2,0,0,11.2,0,25s11.2,25,25,25s25-11.2,25-25S38.8,0,25,0z M18.3,36.5h-4.8V19.2h4.8V36.5z M15.9,17.3L15.9,17.3
	c-1.5,0-2.4-1.1-2.4-2.4c0-1.4,1-2.4,2.4-2.4c1.5,0,2.4,1,2.4,2.4C18.3,16.2,17.3,17.3,15.9,17.3z M36.5,36.5h-4.8v-8.7
	c0-2.9-1.4-3.8-2.9-3.8c-1.4,0-2.9,1-2.9,3.8v8.7h-4.8V19.2H26v2.9c0.3-0.9,1.9-2.9,4.8-2.9c3.8,0,5.8,2.9,5.8,7.7V36.5z"/>
</svg>
