<?xml version="1.0" encoding="UTF-8"?>
<!-- Created with Inkscape (http://www.inkscape.org/) -->
<svg width="100" height="70.6" version="1.1" viewBox="0 0 26.458 18.68" xml:space="preserve" xmlns="http://www.w3.org/2000/svg"><path class="st0" d="m26.458 9.3662c0-5.4769-4.3392-9.3662-9.4456-9.3662h-5.424v7.5671c-2.1431-2.5135-4.3127-5.0271-6.4558-7.5671h-5.1329c2.6458 3.1221 5.2917 6.2442 7.9375 9.3398-2.6458 3.1221-5.2917 6.2442-7.9375 9.3398h5.1329c2.1431-2.5135 4.3127-5.0271 6.4558-7.5406v7.5406h5.424c5.1858 0.0265 9.4456-3.8629 9.4456-9.3133zm-10.451-5.5562h0.50271c3.175 0 5.3181 2.4342 5.3181 5.5827-0.0264 3.1221-2.1696 5.5033-5.3181 5.5033h-0.50271z" stroke-width=".26458"/><style type="text/css">
	.st0{fill:#F9C847;}
</style></svg>
