<?xml version="1.0" encoding="UTF-8"?>
<svg enable-background="new 0 0 50 50" version="1.1" viewBox="0 0 50 50" xml:space="preserve" xmlns="http://www.w3.org/2000/svg">
<g transform="matrix(.26458 0 0 .26458 .0013229 .0024122)">
	<path d="m94.5 0.1c-51.9 0-94.4 42.5-94.4 94.4s42.5 94.4 94.4 94.4 94.5-42.5 94.5-94.4-42.5-94.4-94.5-94.4zm46.3 57.6-16.1 77.4c-0.9 5.7-4.7 6.6-8.5 3.8l-24.5-18.9c-5.7 5.7-11.3 10.4-12.3 12.3-1.9 0.9-2.8 2.8-4.7 2.8-2.8 0-2.8-1.9-3.8-3.8l-8.5-28.3-25.5-8.5c-5.7-1.9-5.7-5.7 0.9-8.5l96.3-36.8c3.9-1 8.6 0.9 6.7 8.5zm-22.7 8.5-53.8 34 8.5 28.3 1.9-18.9 46.3-41.5c2.8-2.9 0.9-2.9-2.9-1.9z"/>
</g>
</svg>
