<?xml version="1.0" encoding="UTF-8"?>
<svg enable-background="new 0 0 122.88 122.88" version="1.1" viewBox="0 0 122.88 122.88" xml:space="preserve" xmlns="http://www.w3.org/2000/svg"><path d="m34.388 67.984c-0.286-0.308-0.542-0.638-0.762-0.981-0.221-0.345-0.414-0.714-0.573-1.097-0.531-1.265-0.675-2.631-0.451-3.934 0.224-1.294 0.812-2.531 1.744-3.548l0.34-0.35c2.293-2.185 5.771-2.592 8.499-0.951 0.39 0.233 0.762 0.51 1.109 0.827l0.034 0.031c1.931 1.852 5.198 4.881 7.343 6.79l1.841 1.651 22.532-23.635c0.317-0.327 0.666-0.62 1.035-0.876 0.378-0.261 0.775-0.482 1.185-0.661 0.414-0.181 0.852-0.323 1.3-0.421 0.447-0.099 0.903-0.155 1.356-0.165h0.026c0.451-5e-3 0.893 0.027 1.341 0.103 0.437 0.074 0.876 0.193 1.333 0.369 0.421 0.161 0.825 0.363 1.207 0.604 0.365 0.231 0.721 0.506 1.056 0.822l0.162 0.147c0.316 0.313 0.601 0.653 0.85 1.014 0.256 0.369 0.475 0.766 0.652 1.178 0.183 0.414 0.325 0.852 0.424 1.299 0.1 0.439 0.154 0.895 0.165 1.36v0.23c-4e-3 0.399-0.042 0.804-0.114 1.204-0.079 0.435-0.198 0.863-0.356 1.271-0.16 0.418-0.365 0.825-0.607 1.21-0.238 0.377-0.518 0.739-0.832 1.07l-27.219 28.56c-0.32 0.342-0.663 0.642-1.022 0.898-0.369 0.264-0.767 0.491-1.183 0.681-0.417 0.188-0.851 0.337-1.288 0.44-0.435 0.104-0.889 0.166-1.35 0.187l-0.125 3e-3c-0.423 9e-3 -0.84-0.016-1.241-0.078l-0.102-0.02c-0.415-0.07-0.819-0.174-1.205-0.31-0.421-0.15-0.833-0.343-1.226-0.575l-0.063-0.04c-0.371-0.224-0.717-0.477-1.032-0.754l-0.063-0.06c-1.58-1.466-3.297-2.958-5.033-4.466-3.007-2.613-7.178-6.382-9.678-9.02l-9e-3 -7e-3zm27.052-67.984c16.96 0 32.328 6.883 43.453 17.987 11.104 11.125 17.986 26.493 17.986 43.453 0 16.961-6.883 32.329-17.986 43.454-11.124 11.104-26.493 17.986-43.453 17.986-16.961 0-32.329-6.882-43.454-17.986-11.104-11.125-17.986-26.494-17.986-43.455 0-16.959 6.882-32.327 17.986-43.452 11.126-11.104 26.493-17.987 43.454-17.987zm35.459 25.981c-9.073-9.074-21.609-14.685-35.459-14.685-13.851 0-26.387 5.611-35.46 14.685-9.073 9.073-14.684 21.609-14.684 35.458 0 13.851 5.611 26.387 14.684 35.46s21.609 14.685 35.46 14.685c13.85 0 26.386-5.611 35.459-14.685s14.684-21.609 14.684-35.46c0-13.849-5.61-26.385-14.684-35.458z" fill="#5FB531"/></svg>
