<svg xmlns="http://www.w3.org/2000/svg" viewBox="0 0 122.9 122.9" style="enable-background:new 0 0 122.9 122.9" xml:space="preserve"><path d="M34.4 68c-6.1-6.6 3.3-16 9.9-10 3.6 3.5 7 6.5 9.2 8.4C78 40.7 76.2 42.5 77.1 41.9c5.7-3.9 13.1 1.9 10.6 8.4C86.8 52.5 58.3 81.7 58 82c-5.7 4-10.3-1.8-13.9-5-9.1-7.8-9.6-9.1-9.7-9zm27-68c34 0 61.4 27.5 61.4 61.4 0 34-27.5 61.4-61.4 61.4C27.5 122.9 0 95.4 0 61.4 0 27.5 27.5 0 61.4 0zm35.5 26C77.3 6.4 45.6 6.4 26 26 6.4 45.5 6.4 77.3 26 96.9c19.6 19.6 51.3 19.6 70.9 0 19.6-19.6 19.6-51.3 0-70.9z" style="fill:#5fb531"/></svg>