<svg viewBox="0 0 50 50" xml:space="preserve" xmlns="http://www.w3.org/2000/svg"><path d="M25.004.029C11.272.029.028 11.274.028 25.005s11.244 24.977 24.976 24.977 25.003-11.245 25.003-24.977S38.762.03 25.004.03zm12.25 15.24-4.26 20.478c-.238 1.508-1.243 1.746-2.248 1.006l-6.483-5.001c-1.508 1.508-2.99 2.752-3.254 3.254-.503.238-.74.741-1.244.741-.74 0-.74-.503-1.005-1.005l-2.249-7.488-6.747-2.249c-1.508-.502-1.508-1.508.238-2.249l25.48-9.736c1.031-.265 2.275.238 1.772 2.249zm-6.006 2.249-14.234 8.995 2.249 7.488.502-5 12.25-10.98c.741-.768.239-.768-.767-.503z"/></svg>